# xmcd
#
# Track frame offsets: 
#        150
#        28463
#        40842
#        50250
#        76767
#        100377
#        132082
#        170539
#        190905
#        215401
#        225281
#        242323
#        269077
#
# Disc length: 3698 seconds
#
# Revision: 1
# Processed by: cddbd v1.5.1PL0 Copyright (c) Steve Scherf et al.
# Submitted via: ExactAudioCopy v0.95b2
#
DISCID=a90e700d
DTITLE=Various Artist - And This Is Maxwell Street (Volume Two)
DYEAR=2001
DGENRE=Blues
TTITLE0=Big Mojo Elem - Mama, Talk to Your Daughter
TTITLE1=Carey Bell - I'm Ready
TTITLE2=Carey Bell - Carey'n On
TTITLE3=James Brewer - When the Saints Go Marching In
TTITLE4=Robert Night Hawk - Back Off Jam
TTITLE5=Arvella Gray - John Henry
TTITLE6=Robert Night Hawk - Annie Lee-Sweet Black Angel
TTITLE7=Big John Wrencher - Love You Tonight
TTITLE8=Robert Night Hawk - The Time Have Come
TTITLE9=Carey Bell - Crusin' in a Cadillac
TTITLE10=Robert Night Hawk - Honey Hush
TTITLE11=James Brewer - I'll Fly Away
TTITLE12=Fannie Brewer - I Shall Overcome
EXTD=YEAR: 2001 ID3G:   0
EXTT0=
EXTT1=
EXTT2=
EXTT3=
EXTT4=
EXTT5=
EXTT6=
EXTT7=
EXTT8=
EXTT9=
EXTT10=
EXTT11=
EXTT12=
PLAYORDER=
